<?xml version="1.0" encoding="utf-8" standalone="no"?>
<!DOCTYPE svg PUBLIC "-//W3C//DTD SVG 1.1//EN"
  "http://www.w3.org/Graphics/SVG/1.1/DTD/svg11.dtd">
<svg xmlns:xlink="http://www.w3.org/1999/xlink" width="864pt" height="518.4pt" viewBox="0 0 864 518.4" xmlns="http://www.w3.org/2000/svg" version="1.1">
 <metadata>
  <rdf:RDF xmlns:dc="http://purl.org/dc/elements/1.1/" xmlns:cc="http://creativecommons.org/ns#" xmlns:rdf="http://www.w3.org/1999/02/22-rdf-syntax-ns#">
   <cc:Work>
    <dc:type rdf:resource="http://purl.org/dc/dcmitype/StillImage"/>
    <dc:date>2026-09-06T23:59:55.025777</dc:date>
    <dc:format>image/svg+xml</dc:format>
    <dc:creator>
     <cc:Agent>
      <dc:title>Matplotlib v3.10.5, https://matplotlib.org/</dc:title>
     </cc:Agent>
    </dc:creator>
   </cc:Work>
  </rdf:RDF>
 </metadata>
 <defs>
  <style type="text/css">*{stroke-linejoin: round; stroke-linecap: butt}</style>
 </defs>
 <g id="figure_1">
  <g id="patch_1">
   <path d="M 0 518.4 
L 864 518.4 
L 864 0 
L 0 0 
z
" style="fill: #ffffff"/>
  </g>
  <g id="axes_1">
   <g id="patch_2">
    <path d="M 108 197.732571 
L 93.096 216.394971 
L 122.904 216.394971 
L 108 197.732571 
z
" clip-path="url(#p0a004696fc)" style="fill: none; stroke: #173c50; stroke-width: 1.5; stroke-linejoin: miter"/>
   </g>
   <g id="patch_3">
    <path d="M 496.8 197.732571 
L 481.896 216.394971 
L 511.704 216.394971 
L 496.8 197.732571 
z
" clip-path="url(#p0a004696fc)" style="fill: none; stroke: #173c50; stroke-width: 1.5; stroke-linejoin: miter"/>
   </g>
   <g id="patch_4">
    <path d="M 489.024 222.793509 
C 490.05511 222.793509 491.044127 222.456413 491.773231 221.856465 
C 492.502336 221.256516 492.912 220.442696 492.912 219.59424 
C 492.912 218.745784 492.502336 217.931964 491.773231 217.332015 
C 491.044127 216.732067 490.05511 216.394971 489.024 216.394971 
C 487.99289 216.394971 487.003873 216.732067 486.274769 217.332015 
C 485.545664 217.931964 485.136 218.745784 485.136 219.59424 
C 485.136 220.442696 485.545664 221.256516 486.274769 221.856465 
C 487.003873 222.456413 487.99289 222.793509 489.024 222.793509 
L 489.024 222.793509 
z
" clip-path="url(#p0a004696fc)" style="fill: none; stroke: #173c50; stroke-linejoin: miter"/>
   </g>
   <g id="patch_5">
    <path d="M 504.576 222.793509 
C 505.60711 222.793509 506.596127 222.456413 507.325231 221.856465 
C 508.054336 221.256516 508.464 220.442696 508.464 219.59424 
C 508.464 218.745784 508.054336 217.931964 507.325231 217.332015 
C 506.596127 216.732067 505.60711 216.394971 504.576 216.394971 
C 503.54489 216.394971 502.555873 216.732067 501.826769 217.332015 
C 501.097664 217.931964 500.688 218.745784 500.688 219.59424 
C 500.688 220.442696 501.097664 221.256516 501.826769 221.856465 
C 502.555873 222.456413 503.54489 222.793509 504.576 222.793509 
L 504.576 222.793509 
z
" clip-path="url(#p0a004696fc)" style="fill: none; stroke: #173c50; stroke-linejoin: miter"/>
   </g>
   <g id="patch_6">
    <path d="M 200.720281 104.420571 
Q 226.260684 104.420571 249.900429 104.420571 
" clip-path="url(#p0a004696fc)" style="fill: none; stroke: #00898b; stroke-width: 1.7; stroke-linecap: round"/>
    <path d="M 243.100429 101.020571 
L 249.900429 104.420571 
L 243.100429 107.820571 
z
" clip-path="url(#p0a004696fc)" style="fill: #00898b; stroke: #00898b; stroke-width: 1.7; stroke-linecap: round"/>
   </g>
   <g id="patch_7">
    <path d="M 329.121576 222.575464 
Q 328.508435 222.749855 329.615906 222.434865 
" clip-path="url(#p0a004696fc)" style="fill: none; stroke: #b74959; stroke-width: 1.6; stroke-linecap: round"/>
    <path d="M 337.086641 223.844873 
L 329.615906 222.434865 
L 335.226353 217.304282 
z
" clip-path="url(#p0a004696fc)" style="fill: #b74959; stroke: #b74959; stroke-width: 1.6; stroke-linecap: round"/>
   </g>
   <g id="patch_8">
    <path d="M 496.8 246.391043 
Q 496.8 228.393404 496.8 213.19085 
" clip-path="url(#p0a004696fc)" style="fill: none; stroke: #00898b; stroke-width: 2.5; stroke-linecap: round"/>
    <path d="M 493.4 219.99085 
L 496.8 213.19085 
L 500.2 219.99085 
z
" clip-path="url(#p0a004696fc)" style="fill: #00898b; stroke: #00898b; stroke-width: 2.5; stroke-linecap: round"/>
   </g>
   <g id="patch_9">
    <path d="M 223.344 315.039086 
L 284.256 315.039086 
L 284.256 283.0464 
L 223.344 283.0464 
z
" clip-path="url(#p0a004696fc)" style="fill: #edf5f7; stroke: #ffffff; stroke-linejoin: miter"/>
   </g>
   <g id="patch_10">
    <path d="M 291.384 315.039086 
L 352.296 315.039086 
L 352.296 283.0464 
L 291.384 283.0464 
z
" clip-path="url(#p0a004696fc)" style="fill: #fff0df; stroke: #ffffff; stroke-linejoin: miter"/>
   </g>
   <g id="patch_11">
    <path d="M 359.424 315.039086 
L 420.336 315.039086 
L 420.336 283.0464 
L 359.424 283.0464 
z
" clip-path="url(#p0a004696fc)" style="fill: #edf5f7; stroke: #ffffff; stroke-linejoin: miter"/>
   </g>
   <g id="patch_12">
    <path d="M 223.344 355.029943 
L 284.256 355.029943 
L 284.256 323.037257 
L 223.344 323.037257 
z
" clip-path="url(#p0a004696fc)" style="fill: #edf5f7; stroke: #ffffff; stroke-linejoin: miter"/>
   </g>
   <g id="patch_13">
    <path d="M 291.384 355.029943 
L 352.296 355.029943 
L 352.296 323.037257 
L 291.384 323.037257 
z
" clip-path="url(#p0a004696fc)" style="fill: #fff0df; stroke: #ffffff; stroke-linejoin: miter"/>
   </g>
   <g id="patch_14">
    <path d="M 359.424 355.029943 
L 420.336 355.029943 
L 420.336 323.037257 
L 359.424 323.037257 
z
" clip-path="url(#p0a004696fc)" style="fill: #edf5f7; stroke: #ffffff; stroke-linejoin: miter"/>
   </g>
   <g id="patch_15">
    <path d="M 223.344 395.0208 
L 284.256 395.0208 
L 284.256 363.028114 
L 223.344 363.028114 
z
" clip-path="url(#p0a004696fc)" style="fill: #edf5f7; stroke: #ffffff; stroke-linejoin: miter"/>
   </g>
   <g id="patch_16">
    <path d="M 291.384 395.0208 
L 352.296 395.0208 
L 352.296 363.028114 
L 291.384 363.028114 
z
" clip-path="url(#p0a004696fc)" style="fill: #fff0df; stroke: #ffffff; stroke-linejoin: miter"/>
   </g>
   <g id="patch_17">
    <path d="M 359.424 395.0208 
L 420.336 395.0208 
L 420.336 363.028114 
L 359.424 363.028114 
z
" clip-path="url(#p0a004696fc)" style="fill: #edf5f7; stroke: #ffffff; stroke-linejoin: miter"/>
   </g>
   <g id="patch_18">
    <path d="M 472.876919 336.367543 
Q 500.039811 336.367543 524.407618 336.367543 
" clip-path="url(#p0a004696fc)" style="fill: none; stroke: #7b919c; stroke-width: 2.5; stroke-linecap: round"/>
    <path d="M 517.607618 332.967543 
L 524.407618 336.367543 
L 517.607618 339.767543 
z
" clip-path="url(#p0a004696fc)" style="fill: #7b919c; stroke: #7b919c; stroke-width: 2.5; stroke-linecap: round"/>
   </g>
   <g id="line2d_1">
    <path d="M 108 197.732571 
L 496.8 197.732571 
" clip-path="url(#p0a004696fc)" style="fill: none; stroke: #247f9e; stroke-width: 3; stroke-linecap: square"/>
   </g>
   <g id="line2d_2">
    <path d="M 87.912 218.527817 
L 128.088 218.527817 
" clip-path="url(#p0a004696fc)" style="fill: none; stroke: #173c50; stroke-linecap: square"/>
   </g>
   <g id="line2d_3">
    <path d="M 88.56 219.59424 
L 82.728 224.926354 
" clip-path="url(#p0a004696fc)" style="fill: none; stroke: #173c50; stroke-width: 0.7; stroke-linecap: square"/>
   </g>
   <g id="line2d_4">
    <path d="M 96.336 219.59424 
L 90.504 224.926354 
" clip-path="url(#p0a004696fc)" style="fill: none; stroke: #173c50; stroke-width: 0.7; stroke-linecap: square"/>
   </g>
   <g id="line2d_5">
    <path d="M 104.112 219.59424 
L 98.28 224.926354 
" clip-path="url(#p0a004696fc)" style="fill: none; stroke: #173c50; stroke-width: 0.7; stroke-linecap: square"/>
   </g>
   <g id="line2d_6">
    <path d="M 111.888 219.59424 
L 106.056 224.926354 
" clip-path="url(#p0a004696fc)" style="fill: none; stroke: #173c50; stroke-width: 0.7; stroke-linecap: square"/>
   </g>
   <g id="line2d_7">
    <path d="M 119.664 219.59424 
L 113.832 224.926354 
" clip-path="url(#p0a004696fc)" style="fill: none; stroke: #173c50; stroke-width: 0.7; stroke-linecap: square"/>
   </g>
   <g id="line2d_8">
    <path d="M 476.712 225.459566 
L 516.888 225.459566 
" clip-path="url(#p0a004696fc)" style="fill: none; stroke: #173c50; stroke-linecap: square"/>
   </g>
   <g id="line2d_9">
    <path d="M 477.36 226.525989 
L 471.528 231.858103 
" clip-path="url(#p0a004696fc)" style="fill: none; stroke: #173c50; stroke-width: 0.7; stroke-linecap: square"/>
   </g>
   <g id="line2d_10">
    <path d="M 485.136 226.525989 
L 479.304 231.858103 
" clip-path="url(#p0a004696fc)" style="fill: none; stroke: #173c50; stroke-width: 0.7; stroke-linecap: square"/>
   </g>
   <g id="line2d_11">
    <path d="M 492.912 226.525989 
L 487.08 231.858103 
" clip-path="url(#p0a004696fc)" style="fill: none; stroke: #173c50; stroke-width: 0.7; stroke-linecap: square"/>
   </g>
   <g id="line2d_12">
    <path d="M 500.688 226.525989 
L 494.856 231.858103 
" clip-path="url(#p0a004696fc)" style="fill: none; stroke: #173c50; stroke-width: 0.7; stroke-linecap: square"/>
   </g>
   <g id="line2d_13">
    <path d="M 508.464 226.525989 
L 502.632 231.858103 
" clip-path="url(#p0a004696fc)" style="fill: none; stroke: #173c50; stroke-width: 0.7; stroke-linecap: square"/>
   </g>
   <g id="line2d_14">
    <path d="M 198.72 213.728914 
L 198.72 109.752686 
" clip-path="url(#p0a004696fc)" style="fill: none; stroke: #247f9e; stroke-width: 4; stroke-linecap: square"/>
   </g>
   <g id="line2d_15">
    <path d="M 198.72 112.418743 
L 282.96 197.732571 
" clip-path="url(#p0a004696fc)" style="fill: none; stroke: #7b919c; stroke-width: 2; stroke-linecap: square"/>
   </g>
   <g id="line2d_16">
    <path d="M 198.72 112.418743 
L 367.2 197.732571 
" clip-path="url(#p0a004696fc)" style="fill: none; stroke: #d8792b; stroke-width: 2; stroke-linecap: square"/>
   </g>
   <g id="line2d_17">
    <path d="M 198.72 112.418743 
L 451.44 197.732571 
" clip-path="url(#p0a004696fc)" style="fill: none; stroke: #7b919c; stroke-width: 2; stroke-linecap: square"/>
   </g>
   <g id="line2d_18">
    <path d="M 325.974425 251.976274 
L 327.193601 252.444439 
L 328.44921 252.842095 
L 329.735237 253.167337 
L 331.045523 253.418606 
L 332.373792 253.594701 
L 333.713682 253.694777 
L 335.058774 253.718354 
L 336.402628 253.665321 
L 337.738805 253.53593 
L 339.060906 253.330803 
L 340.362599 253.05092 
L 341.637648 252.697624 
L 342.879948 252.272605 
L 344.083546 251.7779 
L 345.242679 251.215878 
L 346.351795 250.589232 
L 347.405581 249.900962 
L 348.39899 249.154365 
L 349.327264 248.353017 
L 350.185956 247.500757 
L 350.970954 246.601666 
L 351.678498 245.660051 
L 352.305199 244.680422 
L 352.848055 243.667471 
L 353.304467 242.626049 
L 353.672247 241.561146 
L 353.949635 240.477861 
L 354.135301 239.381383 
L 354.228358 238.276964 
L 354.228358 237.169893 
L 354.135301 236.065474 
L 353.949635 234.968996 
L 353.672247 233.885711 
L 353.304467 232.820808 
L 352.848055 231.779387 
L 352.305199 230.766436 
L 351.678498 229.786806 
L 350.970954 228.845191 
L 350.185956 227.9461 
L 349.327264 227.09384 
L 348.39899 226.292492 
L 347.405581 225.545895 
L 346.351795 224.857625 
L 345.242679 224.230979 
L 344.083546 223.668957 
L 342.879948 223.174252 
L 341.637648 222.749233 
L 340.362599 222.395937 
L 339.060906 222.116054 
L 337.738805 221.910927 
L 336.402628 221.781536 
L 335.058774 221.728503 
L 333.713682 221.752081 
L 332.373792 221.852156 
L 331.045523 222.028251 
L 329.735237 222.279521 
L 328.44921 222.604762 
L 327.193601 223.002418 
L 325.974425 223.470583 
" clip-path="url(#p0a004696fc)" style="fill: none; stroke: #b74959; stroke-width: 1.6; stroke-linecap: square"/>
   </g>
   <g id="text_1">
    <text style="font-size: 12px; font-family: 'DejaVu Sans', 'Bitstream Vera Sans', 'Computer Modern Sans Serif', 'Lucida Grande', 'Verdana', 'Geneva', 'Lucid', 'Arial', 'Helvetica', 'Avant Garde', sans-serif; text-anchor: middle; fill: #173c50" x="282.96" y="185.040916" transform="rotate(-0 282.96 185.040916)">S1</text>
   </g>
   <g id="text_2">
    <text style="font-size: 12px; font-family: 'DejaVu Sans', 'Bitstream Vera Sans', 'Computer Modern Sans Serif', 'Lucida Grande', 'Verdana', 'Geneva', 'Lucid', 'Arial', 'Helvetica', 'Avant Garde', sans-serif; text-anchor: middle; fill: #d8792b" x="367.2" y="185.040916" transform="rotate(-0 367.2 185.040916)">S2</text>
   </g>
   <g id="text_3">
    <text style="font-size: 12px; font-family: 'DejaVu Sans', 'Bitstream Vera Sans', 'Computer Modern Sans Serif', 'Lucida Grande', 'Verdana', 'Geneva', 'Lucid', 'Arial', 'Helvetica', 'Avant Garde', sans-serif; text-anchor: middle; fill: #173c50" x="451.44" y="185.040916" transform="rotate(-0 451.44 185.040916)">S3</text>
   </g>
   <g id="text_4">
    <text style="font-size: 11px; font-family: 'DejaVu Sans', 'Bitstream Vera Sans', 'Computer Modern Sans Serif', 'Lucida Grande', 'Verdana', 'Geneva', 'Lucid', 'Arial', 'Helvetica', 'Avant Garde', sans-serif; text-anchor: middle; fill: #00898b" x="276.48" y="107.375962" transform="rotate(-0 276.48 107.375962)">u_t</text>
   </g>
   <g id="text_5">
    <text style="font-size: 12px; font-family: 'DejaVu Sans', 'Bitstream Vera Sans', 'Computer Modern Sans Serif', 'Lucida Grande', 'Verdana', 'Geneva', 'Lucid', 'Arial', 'Helvetica', 'Avant Garde', sans-serif; text-anchor: start; fill: #b74959" x="373.68" y="240.947491" transform="rotate(-0 373.68 240.947491)">M_c</text>
   </g>
   <g id="text_6">
    <text style="font-size: 11px; font-family: 'DejaVu Sans', 'Bitstream Vera Sans', 'Computer Modern Sans Serif', 'Lucida Grande', 'Verdana', 'Geneva', 'Lucid', 'Arial', 'Helvetica', 'Avant Garde', sans-serif; text-anchor: middle; fill: #00898b" x="521.424" y="231.347619" transform="rotate(-0 521.424 231.347619)">R_e</text>
   </g>
   <g id="text_7">
    <text style="font-size: 16px; font-family: 'DejaVu Sans', 'Bitstream Vera Sans', 'Computer Modern Sans Serif', 'Lucida Grande', 'Verdana', 'Geneva', 'Lucid', 'Arial', 'Helvetica', 'Avant Garde', sans-serif; fill: #d8792b" transform="translate(620.08375 152.485214)">这次只改 S2：</text>
    <text style="font-size: 16px; font-family: 'DejaVu Sans', 'Bitstream Vera Sans', 'Computer Modern Sans Serif', 'Lucida Grande', 'Verdana', 'Geneva', 'Lucid', 'Arial', 'Helvetica', 'Avant Garde', sans-serif; fill: #d8792b" transform="translate(606.1825 171.810714)">ΔT = [0, 1, 0] MN</text>
   </g>
   <g id="text_8">
    <text style="font-size: 12px; font-family: 'DejaVu Sans', 'Bitstream Vera Sans', 'Computer Modern Sans Serif', 'Lucida Grande', 'Verdana', 'Geneva', 'Lucid', 'Arial', 'Helvetica', 'Avant Garde', sans-serif; text-anchor: middle; fill: #7b919c" x="253.8" y="265.02263" transform="rotate(-0 253.8 265.02263)">S1</text>
   </g>
   <g id="text_9">
    <text style="font-size: 12px; font-family: 'DejaVu Sans', 'Bitstream Vera Sans', 'Computer Modern Sans Serif', 'Lucida Grande', 'Verdana', 'Geneva', 'Lucid', 'Arial', 'Helvetica', 'Avant Garde', sans-serif; text-anchor: middle; fill: #7b919c" x="321.84" y="265.02263" transform="rotate(-0 321.84 265.02263)">S2</text>
   </g>
   <g id="text_10">
    <text style="font-size: 12px; font-family: 'DejaVu Sans', 'Bitstream Vera Sans', 'Computer Modern Sans Serif', 'Lucida Grande', 'Verdana', 'Geneva', 'Lucid', 'Arial', 'Helvetica', 'Avant Garde', sans-serif; text-anchor: middle; fill: #7b919c" x="389.88" y="265.02263" transform="rotate(-0 389.88 265.02263)">S3</text>
   </g>
   <g id="text_11">
    <text style="font-size: 10px; font-family: 'DejaVu Sans', 'Bitstream Vera Sans', 'Computer Modern Sans Serif', 'Lucida Grande', 'Verdana', 'Geneva', 'Lucid', 'Arial', 'Helvetica', 'Avant Garde', sans-serif; text-anchor: middle; fill: #173c50" x="137.16" y="301.796649" transform="rotate(-0 137.16 301.796649)">弯矩系数 / (MN·m/MN)</text>
   </g>
   <g id="text_12">
    <text style="font-size: 15px; font-family: 'DejaVu Sans', 'Bitstream Vera Sans', 'Computer Modern Sans Serif', 'Lucida Grande', 'Verdana', 'Geneva', 'Lucid', 'Arial', 'Helvetica', 'Avant Garde', sans-serif; text-anchor: middle; fill: #173c50" x="253.8" y="303.173602" transform="rotate(-0 253.8 303.173602)">-2.0</text>
   </g>
   <g id="text_13">
    <text style="font-size: 15px; font-family: 'DejaVu Sans', 'Bitstream Vera Sans', 'Computer Modern Sans Serif', 'Lucida Grande', 'Verdana', 'Geneva', 'Lucid', 'Arial', 'Helvetica', 'Avant Garde', sans-serif; text-anchor: middle; fill: #d8792b" x="321.84" y="303.173602" transform="rotate(-0 321.84 303.173602)">-1.0</text>
   </g>
   <g id="text_14">
    <text style="font-size: 15px; font-family: 'DejaVu Sans', 'Bitstream Vera Sans', 'Computer Modern Sans Serif', 'Lucida Grande', 'Verdana', 'Geneva', 'Lucid', 'Arial', 'Helvetica', 'Avant Garde', sans-serif; text-anchor: middle; fill: #173c50" x="389.88" y="303.173602" transform="rotate(-0 389.88 303.173602)">-0.4</text>
   </g>
   <g id="text_15">
    <text style="font-size: 10px; font-family: 'DejaVu Sans', 'Bitstream Vera Sans', 'Computer Modern Sans Serif', 'Lucida Grande', 'Verdana', 'Geneva', 'Lucid', 'Arial', 'Helvetica', 'Avant Garde', sans-serif; text-anchor: middle; fill: #173c50" x="137.16" y="341.787506" transform="rotate(-0 137.16 341.787506)">位移系数 / (mm/MN)</text>
   </g>
   <g id="text_16">
    <text style="font-size: 15px; font-family: 'DejaVu Sans', 'Bitstream Vera Sans', 'Computer Modern Sans Serif', 'Lucida Grande', 'Verdana', 'Geneva', 'Lucid', 'Arial', 'Helvetica', 'Avant Garde', sans-serif; text-anchor: middle; fill: #173c50" x="253.8" y="343.164459" transform="rotate(-0 253.8 343.164459)">+0.5</text>
   </g>
   <g id="text_17">
    <text style="font-size: 15px; font-family: 'DejaVu Sans', 'Bitstream Vera Sans', 'Computer Modern Sans Serif', 'Lucida Grande', 'Verdana', 'Geneva', 'Lucid', 'Arial', 'Helvetica', 'Avant Garde', sans-serif; text-anchor: middle; fill: #d8792b" x="321.84" y="343.164459" transform="rotate(-0 321.84 343.164459)">-0.6</text>
   </g>
   <g id="text_18">
    <text style="font-size: 15px; font-family: 'DejaVu Sans', 'Bitstream Vera Sans', 'Computer Modern Sans Serif', 'Lucida Grande', 'Verdana', 'Geneva', 'Lucid', 'Arial', 'Helvetica', 'Avant Garde', sans-serif; text-anchor: middle; fill: #173c50" x="389.88" y="343.164459" transform="rotate(-0 389.88 343.164459)">-1.1</text>
   </g>
   <g id="text_19">
    <text style="font-size: 10px; font-family: 'DejaVu Sans', 'Bitstream Vera Sans', 'Computer Modern Sans Serif', 'Lucida Grande', 'Verdana', 'Geneva', 'Lucid', 'Arial', 'Helvetica', 'Avant Garde', sans-serif; text-anchor: middle; fill: #173c50" x="137.16" y="381.778363" transform="rotate(-0 137.16 381.778363)">反力系数 / (MN/MN)</text>
   </g>
   <g id="text_20">
    <text style="font-size: 15px; font-family: 'DejaVu Sans', 'Bitstream Vera Sans', 'Computer Modern Sans Serif', 'Lucida Grande', 'Verdana', 'Geneva', 'Lucid', 'Arial', 'Helvetica', 'Avant Garde', sans-serif; text-anchor: middle; fill: #173c50" x="253.8" y="383.155317" transform="rotate(-0 253.8 383.155317)">+0.1</text>
   </g>
   <g id="text_21">
    <text style="font-size: 15px; font-family: 'DejaVu Sans', 'Bitstream Vera Sans', 'Computer Modern Sans Serif', 'Lucida Grande', 'Verdana', 'Geneva', 'Lucid', 'Arial', 'Helvetica', 'Avant Garde', sans-serif; text-anchor: middle; fill: #d8792b" x="321.84" y="383.155317" transform="rotate(-0 321.84 383.155317)">+0.3</text>
   </g>
   <g id="text_22">
    <text style="font-size: 15px; font-family: 'DejaVu Sans', 'Bitstream Vera Sans', 'Computer Modern Sans Serif', 'Lucida Grande', 'Verdana', 'Geneva', 'Lucid', 'Arial', 'Helvetica', 'Avant Garde', sans-serif; text-anchor: middle; fill: #173c50" x="389.88" y="383.155317" transform="rotate(-0 389.88 383.155317)">+0.6</text>
   </g>
   <g id="text_23">
    <text style="font-size: 17px; font-family: 'DejaVu Sans', 'Bitstream Vera Sans', 'Computer Modern Sans Serif', 'Lucida Grande', 'Verdana', 'Geneva', 'Lucid', 'Arial', 'Helvetica', 'Avant Garde', sans-serif; fill: #d8792b" transform="translate(619.217969 312.362215)">−1.0 MN·m</text>
    <text style="font-size: 17px; font-family: 'DejaVu Sans', 'Bitstream Vera Sans', 'Computer Modern Sans Serif', 'Lucida Grande', 'Verdana', 'Geneva', 'Lucid', 'Arial', 'Helvetica', 'Avant Garde', sans-serif; fill: #d8792b" transform="translate(628.514844 341.049183)">−0.6 mm</text>
    <text style="font-size: 17px; font-family: 'DejaVu Sans', 'Bitstream Vera Sans', 'Computer Modern Sans Serif', 'Lucida Grande', 'Verdana', 'Geneva', 'Lucid', 'Arial', 'Helvetica', 'Avant Garde', sans-serif; fill: #d8792b" transform="translate(629.229375 369.736152)">+0.3 MN</text>
   </g>
   <g id="text_24">
    <text style="font-size: 14px; font-family: 'DejaVu Sans', 'Bitstream Vera Sans', 'Computer Modern Sans Serif', 'Lucida Grande', 'Verdana', 'Geneva', 'Lucid', 'Arial', 'Helvetica', 'Avant Garde', sans-serif; text-anchor: middle; fill: #173c50" x="425.52" y="446.865297" transform="rotate(-0 425.52 446.865297)">每次只改变一个索组，把各观测量的增量放进同一列。</text>
   </g>
  </g>
  <g id="text_25">
   <text style="font-weight: 700; font-size: 23px; font-family: 'DejaVu Sans', 'Bitstream Vera Sans', 'Computer Modern Sans Serif', 'Lucida Grande', 'Verdana', 'Geneva', 'Lucid', 'Arial', 'Helvetica', 'Avant Garde', sans-serif; text-anchor: start; fill: #173c50" x="47.52" y="46.897625" transform="rotate(-0 47.52 46.897625)">只调一组索，怎样得到矩阵的一列？</text>
  </g>
  <g id="text_26">
   <text style="font-size: 10.5px; font-family: 'DejaVu Sans', 'Bitstream Vera Sans', 'Computer Modern Sans Serif', 'Lucida Grande', 'Verdana', 'Geneva', 'Lucid', 'Arial', 'Helvetica', 'Avant Garde', sans-serif; text-anchor: start; fill: #7b919c" x="47.52" y="492.461766" transform="rotate(-0 47.52 492.461766)">数值沿用正文构造的程序测试矩阵，不代表图示桥的实算结果。各行量纲不同，不能跨行比较数字大小。</text>
  </g>
 </g>
 <defs>
  <clipPath id="p0a004696fc">
   <rect x="43.2" y="77.76" width="777.6" height="373.248"/>
  </clipPath>
 </defs>
</svg>
