<?xml version="1.0" encoding="utf-8" standalone="no"?>
<!DOCTYPE svg PUBLIC "-//W3C//DTD SVG 1.1//EN"
  "http://www.w3.org/Graphics/SVG/1.1/DTD/svg11.dtd">
<svg xmlns:xlink="http://www.w3.org/1999/xlink" width="864pt" height="518.4pt" viewBox="0 0 864 518.4" xmlns="http://www.w3.org/2000/svg" version="1.1">
 <metadata>
  <rdf:RDF xmlns:dc="http://purl.org/dc/elements/1.1/" xmlns:cc="http://creativecommons.org/ns#" xmlns:rdf="http://www.w3.org/1999/02/22-rdf-syntax-ns#">
   <cc:Work>
    <dc:type rdf:resource="http://purl.org/dc/dcmitype/StillImage"/>
    <dc:date>2026-09-07T00:04:03.601022</dc:date>
    <dc:format>image/svg+xml</dc:format>
    <dc:creator>
     <cc:Agent>
      <dc:title>Matplotlib v3.10.5, https://matplotlib.org/</dc:title>
     </cc:Agent>
    </dc:creator>
   </cc:Work>
  </rdf:RDF>
 </metadata>
 <defs>
  <style type="text/css">*{stroke-linejoin: round; stroke-linecap: butt}</style>
 </defs>
 <g id="figure_1">
  <g id="patch_1">
   <path d="M 0 518.4 
L 864 518.4 
L 864 0 
L 0 0 
z
" style="fill: #ffffff"/>
  </g>
  <g id="axes_1">
   <g id="patch_2">
    <path d="M 104.76 189.7344 
L 89.856 208.3968 
L 119.664 208.3968 
L 104.76 189.7344 
z
" clip-path="url(#pfc26895383)" style="fill: none; stroke: #173c50; stroke-width: 1.5; stroke-linejoin: miter"/>
   </g>
   <g id="patch_3">
    <path d="M 370.44 189.7344 
L 355.536 208.3968 
L 385.344 208.3968 
L 370.44 189.7344 
z
" clip-path="url(#pfc26895383)" style="fill: none; stroke: #173c50; stroke-width: 1.5; stroke-linejoin: miter"/>
   </g>
   <g id="patch_4">
    <path d="M 362.664 214.795337 
C 363.69511 214.795337 364.684127 214.458242 365.413231 213.858293 
C 366.142336 213.258344 366.552 212.444525 366.552 211.596069 
C 366.552 210.747613 366.142336 209.933793 365.413231 209.333844 
C 364.684127 208.733895 363.69511 208.3968 362.664 208.3968 
C 361.63289 208.3968 360.643873 208.733895 359.914769 209.333844 
C 359.185664 209.933793 358.776 210.747613 358.776 211.596069 
C 358.776 212.444525 359.185664 213.258344 359.914769 213.858293 
C 360.643873 214.458242 361.63289 214.795337 362.664 214.795337 
L 362.664 214.795337 
z
" clip-path="url(#pfc26895383)" style="fill: none; stroke: #173c50; stroke-linejoin: miter"/>
   </g>
   <g id="patch_5">
    <path d="M 378.216 214.795337 
C 379.24711 214.795337 380.236127 214.458242 380.965231 213.858293 
C 381.694336 213.258344 382.104 212.444525 382.104 211.596069 
C 382.104 210.747613 381.694336 209.933793 380.965231 209.333844 
C 380.236127 208.733895 379.24711 208.3968 378.216 208.3968 
C 377.18489 208.3968 376.195873 208.733895 375.466769 209.333844 
C 374.737664 209.933793 374.328 210.747613 374.328 211.596069 
C 374.328 212.444525 374.737664 213.258344 375.466769 213.858293 
C 376.195873 214.458242 377.18489 214.795337 378.216 214.795337 
L 378.216 214.795337 
z
" clip-path="url(#pfc26895383)" style="fill: none; stroke: #173c50; stroke-linejoin: miter"/>
   </g>
   <g id="patch_6">
    <path d="M 214.5744 133.078798 
Q 214.5744 156.140767 214.5744 177.525686 
" clip-path="url(#pfc26895383)" style="fill: none; stroke: #00898b; stroke-width: 1.5; stroke-linecap: round"/>
    <path d="M 217.9744 170.725686 
L 214.5744 177.525686 
L 211.1744 170.725686 
z
" clip-path="url(#pfc26895383)" style="fill: #00898b; stroke: #00898b; stroke-width: 1.5; stroke-linecap: round"/>
   </g>
   <g id="patch_7">
    <path d="M 233.6148 133.078798 
Q 233.6148 156.140767 233.6148 177.525686 
" clip-path="url(#pfc26895383)" style="fill: none; stroke: #00898b; stroke-width: 1.5; stroke-linecap: round"/>
    <path d="M 237.0148 170.725686 
L 233.6148 177.525686 
L 230.2148 170.725686 
z
" clip-path="url(#pfc26895383)" style="fill: #00898b; stroke: #00898b; stroke-width: 1.5; stroke-linecap: round"/>
   </g>
   <g id="patch_8">
    <path d="M 252.6552 133.078798 
Q 252.6552 156.140767 252.6552 177.525686 
" clip-path="url(#pfc26895383)" style="fill: none; stroke: #00898b; stroke-width: 1.5; stroke-linecap: round"/>
    <path d="M 256.0552 170.725686 
L 252.6552 177.525686 
L 249.2552 170.725686 
z
" clip-path="url(#pfc26895383)" style="fill: #00898b; stroke: #00898b; stroke-width: 1.5; stroke-linecap: round"/>
   </g>
   <g id="patch_9">
    <path d="M 271.6956 133.078798 
Q 271.6956 156.140767 271.6956 177.525686 
" clip-path="url(#pfc26895383)" style="fill: none; stroke: #00898b; stroke-width: 1.5; stroke-linecap: round"/>
    <path d="M 275.0956 170.725686 
L 271.6956 177.525686 
L 268.2956 170.725686 
z
" clip-path="url(#pfc26895383)" style="fill: #00898b; stroke: #00898b; stroke-width: 1.5; stroke-linecap: round"/>
   </g>
   <g id="patch_10">
    <path d="M 290.736 133.078798 
Q 290.736 156.140767 290.736 177.525686 
" clip-path="url(#pfc26895383)" style="fill: none; stroke: #00898b; stroke-width: 1.5; stroke-linecap: round"/>
    <path d="M 294.136 170.725686 
L 290.736 177.525686 
L 287.336 170.725686 
z
" clip-path="url(#pfc26895383)" style="fill: #00898b; stroke: #00898b; stroke-width: 1.5; stroke-linecap: round"/>
   </g>
   <g id="patch_11">
    <path d="M 309.7764 133.078798 
Q 309.7764 156.140767 309.7764 177.525686 
" clip-path="url(#pfc26895383)" style="fill: none; stroke: #00898b; stroke-width: 1.5; stroke-linecap: round"/>
    <path d="M 313.1764 170.725686 
L 309.7764 177.525686 
L 306.3764 170.725686 
z
" clip-path="url(#pfc26895383)" style="fill: #00898b; stroke: #00898b; stroke-width: 1.5; stroke-linecap: round"/>
   </g>
   <g id="patch_12">
    <path d="M 328.8168 133.078798 
Q 328.8168 156.140767 328.8168 177.525686 
" clip-path="url(#pfc26895383)" style="fill: none; stroke: #00898b; stroke-width: 1.5; stroke-linecap: round"/>
    <path d="M 332.2168 170.725686 
L 328.8168 177.525686 
L 325.4168 170.725686 
z
" clip-path="url(#pfc26895383)" style="fill: #00898b; stroke: #00898b; stroke-width: 1.5; stroke-linecap: round"/>
   </g>
   <g id="patch_13">
    <path d="M 347.8572 133.078798 
Q 347.8572 156.140767 347.8572 177.525686 
" clip-path="url(#pfc26895383)" style="fill: none; stroke: #00898b; stroke-width: 1.5; stroke-linecap: round"/>
    <path d="M 351.2572 170.725686 
L 347.8572 177.525686 
L 344.4572 170.725686 
z
" clip-path="url(#pfc26895383)" style="fill: #00898b; stroke: #00898b; stroke-width: 1.5; stroke-linecap: round"/>
   </g>
   <g id="patch_14">
    <path d="M 366.8976 133.078798 
Q 366.8976 156.140767 366.8976 177.525686 
" clip-path="url(#pfc26895383)" style="fill: none; stroke: #00898b; stroke-width: 1.5; stroke-linecap: round"/>
    <path d="M 370.2976 170.725686 
L 366.8976 177.525686 
L 363.4976 170.725686 
z
" clip-path="url(#pfc26895383)" style="fill: #00898b; stroke: #00898b; stroke-width: 1.5; stroke-linecap: round"/>
   </g>
   <g id="FillBetweenPolyCollection_1">
    <defs>
     <path id="m7ff138883e" d="M 211.032 -268.94592 
L 211.032 -211.359086 
L 212.62608 -211.359086 
L 214.22016 -211.359086 
L 215.81424 -211.359086 
L 217.40832 -211.359086 
L 219.0024 -211.359086 
L 220.59648 -211.359086 
L 222.19056 -211.359086 
L 223.78464 -211.359086 
L 225.37872 -211.359086 
L 226.9728 -211.359086 
L 228.56688 -211.359086 
L 230.16096 -211.359086 
L 231.75504 -211.359086 
L 233.34912 -211.359086 
L 234.9432 -211.359086 
L 236.53728 -211.359086 
L 238.13136 -211.359086 
L 239.72544 -211.359086 
L 241.31952 -211.359086 
L 242.9136 -211.359086 
L 244.50768 -211.359086 
L 246.10176 -211.359086 
L 247.69584 -211.359086 
L 249.28992 -211.359086 
L 250.884 -211.359086 
L 252.47808 -211.359086 
L 254.07216 -211.359086 
L 255.66624 -211.359086 
L 257.26032 -211.359086 
L 258.8544 -211.359086 
L 260.44848 -211.359086 
L 262.04256 -211.359086 
L 263.63664 -211.359086 
L 265.23072 -211.359086 
L 266.8248 -211.359086 
L 268.41888 -211.359086 
L 270.01296 -211.359086 
L 271.60704 -211.359086 
L 273.20112 -211.359086 
L 274.7952 -211.359086 
L 276.38928 -211.359086 
L 277.98336 -211.359086 
L 279.57744 -211.359086 
L 281.17152 -211.359086 
L 282.7656 -211.359086 
L 284.35968 -211.359086 
L 285.95376 -211.359086 
L 287.54784 -211.359086 
L 289.14192 -211.359086 
L 290.736 -211.359086 
L 292.33008 -211.359086 
L 293.92416 -211.359086 
L 295.51824 -211.359086 
L 297.11232 -211.359086 
L 298.7064 -211.359086 
L 300.30048 -211.359086 
L 301.89456 -211.359086 
L 303.48864 -211.359086 
L 305.08272 -211.359086 
L 306.6768 -211.359086 
L 308.27088 -211.359086 
L 309.86496 -211.359086 
L 311.45904 -211.359086 
L 313.05312 -211.359086 
L 314.6472 -211.359086 
L 316.24128 -211.359086 
L 317.83536 -211.359086 
L 319.42944 -211.359086 
L 321.02352 -211.359086 
L 322.6176 -211.359086 
L 324.21168 -211.359086 
L 325.80576 -211.359086 
L 327.39984 -211.359086 
L 328.99392 -211.359086 
L 330.588 -211.359086 
L 332.18208 -211.359086 
L 333.77616 -211.359086 
L 335.37024 -211.359086 
L 336.96432 -211.359086 
L 338.5584 -211.359086 
L 340.15248 -211.359086 
L 341.74656 -211.359086 
L 343.34064 -211.359086 
L 344.93472 -211.359086 
L 346.5288 -211.359086 
L 348.12288 -211.359086 
L 349.71696 -211.359086 
L 351.31104 -211.359086 
L 352.90512 -211.359086 
L 354.4992 -211.359086 
L 356.09328 -211.359086 
L 357.68736 -211.359086 
L 359.28144 -211.359086 
L 360.87552 -211.359086 
L 362.4696 -211.359086 
L 364.06368 -211.359086 
L 365.65776 -211.359086 
L 367.25184 -211.359086 
L 368.84592 -211.359086 
L 370.44 -211.359086 
L 370.44 -211.359086 
L 370.44 -211.359086 
L 368.84592 -211.934954 
L 367.25184 -212.510822 
L 365.65776 -213.086691 
L 364.06368 -213.662559 
L 362.4696 -214.238427 
L 360.87552 -214.814296 
L 359.28144 -215.390164 
L 357.68736 -215.966032 
L 356.09328 -216.541901 
L 354.4992 -217.117769 
L 352.90512 -217.693637 
L 351.31104 -218.269506 
L 349.71696 -218.845374 
L 348.12288 -219.421243 
L 346.5288 -219.997111 
L 344.93472 -220.572979 
L 343.34064 -221.148848 
L 341.74656 -221.724716 
L 340.15248 -222.300584 
L 338.5584 -222.876453 
L 336.96432 -223.452321 
L 335.37024 -224.028189 
L 333.77616 -224.604058 
L 332.18208 -225.179926 
L 330.588 -225.755794 
L 328.99392 -226.331663 
L 327.39984 -226.907531 
L 325.80576 -227.483399 
L 324.21168 -228.059268 
L 322.6176 -228.635136 
L 321.02352 -229.211004 
L 319.42944 -229.786873 
L 317.83536 -230.362741 
L 316.24128 -230.938609 
L 314.6472 -231.514478 
L 313.05312 -232.090346 
L 311.45904 -232.666214 
L 309.86496 -233.242083 
L 308.27088 -233.817951 
L 306.6768 -234.393819 
L 305.08272 -234.969688 
L 303.48864 -235.545556 
L 301.89456 -236.121424 
L 300.30048 -236.697293 
L 298.7064 -237.273161 
L 297.11232 -237.849029 
L 295.51824 -238.424898 
L 293.92416 -239.000766 
L 292.33008 -239.576635 
L 290.736 -240.152503 
L 289.14192 -240.728371 
L 287.54784 -241.30424 
L 285.95376 -241.880108 
L 284.35968 -242.455976 
L 282.7656 -243.031845 
L 281.17152 -243.607713 
L 279.57744 -244.183581 
L 277.98336 -244.75945 
L 276.38928 -245.335318 
L 274.7952 -245.911186 
L 273.20112 -246.487055 
L 271.60704 -247.062923 
L 270.01296 -247.638791 
L 268.41888 -248.21466 
L 266.8248 -248.790528 
L 265.23072 -249.366396 
L 263.63664 -249.942265 
L 262.04256 -250.518133 
L 260.44848 -251.094001 
L 258.8544 -251.66987 
L 257.26032 -252.245738 
L 255.66624 -252.821606 
L 254.07216 -253.397475 
L 252.47808 -253.973343 
L 250.884 -254.549211 
L 249.28992 -255.12508 
L 247.69584 -255.700948 
L 246.10176 -256.276816 
L 244.50768 -256.852685 
L 242.9136 -257.428553 
L 241.31952 -258.004421 
L 239.72544 -258.58029 
L 238.13136 -259.156158 
L 236.53728 -259.732027 
L 234.9432 -260.307895 
L 233.34912 -260.883763 
L 231.75504 -261.459632 
L 230.16096 -262.0355 
L 228.56688 -262.611368 
L 226.9728 -263.187237 
L 225.37872 -263.763105 
L 223.78464 -264.338973 
L 222.19056 -264.914842 
L 220.59648 -265.49071 
L 219.0024 -266.066578 
L 217.40832 -266.642447 
L 215.81424 -267.218315 
L 214.22016 -267.794183 
L 212.62608 -268.370052 
L 211.032 -268.94592 
z
" style="stroke: #00898b; stroke-opacity: 0.16"/>
    </defs>
    <g clip-path="url(#pfc26895383)">
     <use xlink:href="#m7ff138883e" x="0" y="518.4" style="fill: #00898b; fill-opacity: 0.16; stroke: #00898b; stroke-opacity: 0.16"/>
    </g>
   </g>
   <g id="patch_15">
    <path d="M 493.56 189.7344 
L 478.656 208.3968 
L 508.464 208.3968 
L 493.56 189.7344 
z
" clip-path="url(#pfc26895383)" style="fill: none; stroke: #173c50; stroke-width: 1.5; stroke-linejoin: miter"/>
   </g>
   <g id="patch_16">
    <path d="M 759.24 189.7344 
L 744.336 208.3968 
L 774.144 208.3968 
L 759.24 189.7344 
z
" clip-path="url(#pfc26895383)" style="fill: none; stroke: #173c50; stroke-width: 1.5; stroke-linejoin: miter"/>
   </g>
   <g id="patch_17">
    <path d="M 751.464 214.795337 
C 752.49511 214.795337 753.484127 214.458242 754.213231 213.858293 
C 754.942336 213.258344 755.352 212.444525 755.352 211.596069 
C 755.352 210.747613 754.942336 209.933793 754.213231 209.333844 
C 753.484127 208.733895 752.49511 208.3968 751.464 208.3968 
C 750.43289 208.3968 749.443873 208.733895 748.714769 209.333844 
C 747.985664 209.933793 747.576 210.747613 747.576 211.596069 
C 747.576 212.444525 747.985664 213.258344 748.714769 213.858293 
C 749.443873 214.458242 750.43289 214.795337 751.464 214.795337 
L 751.464 214.795337 
z
" clip-path="url(#pfc26895383)" style="fill: none; stroke: #173c50; stroke-linejoin: miter"/>
   </g>
   <g id="patch_18">
    <path d="M 767.016 214.795337 
C 768.04711 214.795337 769.036127 214.458242 769.765231 213.858293 
C 770.494336 213.258344 770.904 212.444525 770.904 211.596069 
C 770.904 210.747613 770.494336 209.933793 769.765231 209.333844 
C 769.036127 208.733895 768.04711 208.3968 767.016 208.3968 
C 765.98489 208.3968 764.995873 208.733895 764.266769 209.333844 
C 763.537664 209.933793 763.128 210.747613 763.128 211.596069 
C 763.128 212.444525 763.537664 213.258344 764.266769 213.858293 
C 764.995873 214.458242 765.98489 214.795337 767.016 214.795337 
L 767.016 214.795337 
z
" clip-path="url(#pfc26895383)" style="fill: none; stroke: #173c50; stroke-linejoin: miter"/>
   </g>
   <g id="patch_19">
    <path d="M 497.1024 133.078798 
Q 497.1024 156.140767 497.1024 177.525686 
" clip-path="url(#pfc26895383)" style="fill: none; stroke: #b74959; stroke-width: 1.5; stroke-linecap: round"/>
    <path d="M 500.5024 170.725686 
L 497.1024 177.525686 
L 493.7024 170.725686 
z
" clip-path="url(#pfc26895383)" style="fill: #b74959; stroke: #b74959; stroke-width: 1.5; stroke-linecap: round"/>
   </g>
   <g id="patch_20">
    <path d="M 509.5008 133.078798 
Q 509.5008 156.140767 509.5008 177.525686 
" clip-path="url(#pfc26895383)" style="fill: none; stroke: #b74959; stroke-width: 1.5; stroke-linecap: round"/>
    <path d="M 512.9008 170.725686 
L 509.5008 177.525686 
L 506.1008 170.725686 
z
" clip-path="url(#pfc26895383)" style="fill: #b74959; stroke: #b74959; stroke-width: 1.5; stroke-linecap: round"/>
   </g>
   <g id="patch_21">
    <path d="M 521.8992 133.078798 
Q 521.8992 156.140767 521.8992 177.525686 
" clip-path="url(#pfc26895383)" style="fill: none; stroke: #b74959; stroke-width: 1.5; stroke-linecap: round"/>
    <path d="M 525.2992 170.725686 
L 521.8992 177.525686 
L 518.4992 170.725686 
z
" clip-path="url(#pfc26895383)" style="fill: #b74959; stroke: #b74959; stroke-width: 1.5; stroke-linecap: round"/>
   </g>
   <g id="patch_22">
    <path d="M 534.2976 133.078798 
Q 534.2976 156.140767 534.2976 177.525686 
" clip-path="url(#pfc26895383)" style="fill: none; stroke: #b74959; stroke-width: 1.5; stroke-linecap: round"/>
    <path d="M 537.6976 170.725686 
L 534.2976 177.525686 
L 530.8976 170.725686 
z
" clip-path="url(#pfc26895383)" style="fill: #b74959; stroke: #b74959; stroke-width: 1.5; stroke-linecap: round"/>
   </g>
   <g id="patch_23">
    <path d="M 546.696 133.078798 
Q 546.696 156.140767 546.696 177.525686 
" clip-path="url(#pfc26895383)" style="fill: none; stroke: #b74959; stroke-width: 1.5; stroke-linecap: round"/>
    <path d="M 550.096 170.725686 
L 546.696 177.525686 
L 543.296 170.725686 
z
" clip-path="url(#pfc26895383)" style="fill: #b74959; stroke: #b74959; stroke-width: 1.5; stroke-linecap: round"/>
   </g>
   <g id="patch_24">
    <path d="M 559.0944 133.078798 
Q 559.0944 156.140767 559.0944 177.525686 
" clip-path="url(#pfc26895383)" style="fill: none; stroke: #b74959; stroke-width: 1.5; stroke-linecap: round"/>
    <path d="M 562.4944 170.725686 
L 559.0944 177.525686 
L 555.6944 170.725686 
z
" clip-path="url(#pfc26895383)" style="fill: #b74959; stroke: #b74959; stroke-width: 1.5; stroke-linecap: round"/>
   </g>
   <g id="patch_25">
    <path d="M 571.4928 133.078798 
Q 571.4928 156.140767 571.4928 177.525686 
" clip-path="url(#pfc26895383)" style="fill: none; stroke: #b74959; stroke-width: 1.5; stroke-linecap: round"/>
    <path d="M 574.8928 170.725686 
L 571.4928 177.525686 
L 568.0928 170.725686 
z
" clip-path="url(#pfc26895383)" style="fill: #b74959; stroke: #b74959; stroke-width: 1.5; stroke-linecap: round"/>
   </g>
   <g id="patch_26">
    <path d="M 583.8912 133.078798 
Q 583.8912 156.140767 583.8912 177.525686 
" clip-path="url(#pfc26895383)" style="fill: none; stroke: #b74959; stroke-width: 1.5; stroke-linecap: round"/>
    <path d="M 587.2912 170.725686 
L 583.8912 177.525686 
L 580.4912 170.725686 
z
" clip-path="url(#pfc26895383)" style="fill: #b74959; stroke: #b74959; stroke-width: 1.5; stroke-linecap: round"/>
   </g>
   <g id="patch_27">
    <path d="M 596.2896 133.078798 
Q 596.2896 156.140767 596.2896 177.525686 
" clip-path="url(#pfc26895383)" style="fill: none; stroke: #b74959; stroke-width: 1.5; stroke-linecap: round"/>
    <path d="M 599.6896 170.725686 
L 596.2896 177.525686 
L 592.8896 170.725686 
z
" clip-path="url(#pfc26895383)" style="fill: #b74959; stroke: #b74959; stroke-width: 1.5; stroke-linecap: round"/>
   </g>
   <g id="FillBetweenPolyCollection_2">
    <defs>
     <path id="m6f32452dbb" d="M 493.56 -211.359086 
L 493.56 -211.359086 
L 494.62272 -211.359086 
L 495.68544 -211.359086 
L 496.74816 -211.359086 
L 497.81088 -211.359086 
L 498.8736 -211.359086 
L 499.93632 -211.359086 
L 500.99904 -211.359086 
L 502.06176 -211.359086 
L 503.12448 -211.359086 
L 504.1872 -211.359086 
L 505.24992 -211.359086 
L 506.31264 -211.359086 
L 507.37536 -211.359086 
L 508.43808 -211.359086 
L 509.5008 -211.359086 
L 510.56352 -211.359086 
L 511.62624 -211.359086 
L 512.68896 -211.359086 
L 513.75168 -211.359086 
L 514.8144 -211.359086 
L 515.87712 -211.359086 
L 516.93984 -211.359086 
L 518.00256 -211.359086 
L 519.06528 -211.359086 
L 520.128 -211.359086 
L 521.19072 -211.359086 
L 522.25344 -211.359086 
L 523.31616 -211.359086 
L 524.37888 -211.359086 
L 525.4416 -211.359086 
L 526.50432 -211.359086 
L 527.56704 -211.359086 
L 528.62976 -211.359086 
L 529.69248 -211.359086 
L 530.7552 -211.359086 
L 531.81792 -211.359086 
L 532.88064 -211.359086 
L 533.94336 -211.359086 
L 535.00608 -211.359086 
L 536.0688 -211.359086 
L 537.13152 -211.359086 
L 538.19424 -211.359086 
L 539.25696 -211.359086 
L 540.31968 -211.359086 
L 541.3824 -211.359086 
L 542.44512 -211.359086 
L 543.50784 -211.359086 
L 544.57056 -211.359086 
L 545.63328 -211.359086 
L 546.696 -211.359086 
L 547.75872 -211.359086 
L 548.82144 -211.359086 
L 549.88416 -211.359086 
L 550.94688 -211.359086 
L 552.0096 -211.359086 
L 553.07232 -211.359086 
L 554.13504 -211.359086 
L 555.19776 -211.359086 
L 556.26048 -211.359086 
L 557.3232 -211.359086 
L 558.38592 -211.359086 
L 559.44864 -211.359086 
L 560.51136 -211.359086 
L 561.57408 -211.359086 
L 562.6368 -211.359086 
L 563.69952 -211.359086 
L 564.76224 -211.359086 
L 565.82496 -211.359086 
L 566.88768 -211.359086 
L 567.9504 -211.359086 
L 569.01312 -211.359086 
L 570.07584 -211.359086 
L 571.13856 -211.359086 
L 572.20128 -211.359086 
L 573.264 -211.359086 
L 574.32672 -211.359086 
L 575.38944 -211.359086 
L 576.45216 -211.359086 
L 577.51488 -211.359086 
L 578.5776 -211.359086 
L 579.64032 -211.359086 
L 580.70304 -211.359086 
L 581.76576 -211.359086 
L 582.82848 -211.359086 
L 583.8912 -211.359086 
L 584.95392 -211.359086 
L 586.01664 -211.359086 
L 587.07936 -211.359086 
L 588.14208 -211.359086 
L 589.2048 -211.359086 
L 590.26752 -211.359086 
L 591.33024 -211.359086 
L 592.39296 -211.359086 
L 593.45568 -211.359086 
L 594.5184 -211.359086 
L 595.58112 -211.359086 
L 596.64384 -211.359086 
L 597.70656 -211.359086 
L 598.76928 -211.359086 
L 599.832 -211.359086 
L 599.832 -172.967863 
L 599.832 -172.967863 
L 598.76928 -173.351775 
L 597.70656 -173.735687 
L 596.64384 -174.1196 
L 595.58112 -174.503512 
L 594.5184 -174.887424 
L 593.45568 -175.271336 
L 592.39296 -175.655248 
L 591.33024 -176.039161 
L 590.26752 -176.423073 
L 589.2048 -176.806985 
L 588.14208 -177.190897 
L 587.07936 -177.57481 
L 586.01664 -177.958722 
L 584.95392 -178.342634 
L 583.8912 -178.726546 
L 582.82848 -179.110459 
L 581.76576 -179.494371 
L 580.70304 -179.878283 
L 579.64032 -180.262195 
L 578.5776 -180.646107 
L 577.51488 -181.03002 
L 576.45216 -181.413932 
L 575.38944 -181.797844 
L 574.32672 -182.181756 
L 573.264 -182.565669 
L 572.20128 -182.949581 
L 571.13856 -183.333493 
L 570.07584 -183.717405 
L 569.01312 -184.101317 
L 567.9504 -184.48523 
L 566.88768 -184.869142 
L 565.82496 -185.253054 
L 564.76224 -185.636966 
L 563.69952 -186.020879 
L 562.6368 -186.404791 
L 561.57408 -186.788703 
L 560.51136 -187.172615 
L 559.44864 -187.556528 
L 558.38592 -187.94044 
L 557.3232 -188.324352 
L 556.26048 -188.708264 
L 555.19776 -189.092176 
L 554.13504 -189.476089 
L 553.07232 -189.860001 
L 552.0096 -190.243913 
L 550.94688 -190.627825 
L 549.88416 -191.011738 
L 548.82144 -191.39565 
L 547.75872 -191.779562 
L 546.696 -192.163474 
L 545.63328 -192.547387 
L 544.57056 -192.931299 
L 543.50784 -193.315211 
L 542.44512 -193.699123 
L 541.3824 -194.083035 
L 540.31968 -194.466948 
L 539.25696 -194.85086 
L 538.19424 -195.234772 
L 537.13152 -195.618684 
L 536.0688 -196.002597 
L 535.00608 -196.386509 
L 533.94336 -196.770421 
L 532.88064 -197.154333 
L 531.81792 -197.538245 
L 530.7552 -197.922158 
L 529.69248 -198.30607 
L 528.62976 -198.689982 
L 527.56704 -199.073894 
L 526.50432 -199.457807 
L 525.4416 -199.841719 
L 524.37888 -200.225631 
L 523.31616 -200.609543 
L 522.25344 -200.993456 
L 521.19072 -201.377368 
L 520.128 -201.76128 
L 519.06528 -202.145192 
L 518.00256 -202.529104 
L 516.93984 -202.913017 
L 515.87712 -203.296929 
L 514.8144 -203.680841 
L 513.75168 -204.064753 
L 512.68896 -204.448666 
L 511.62624 -204.832578 
L 510.56352 -205.21649 
L 509.5008 -205.600402 
L 508.43808 -205.984315 
L 507.37536 -206.368227 
L 506.31264 -206.752139 
L 505.24992 -207.136051 
L 504.1872 -207.519963 
L 503.12448 -207.903876 
L 502.06176 -208.287788 
L 500.99904 -208.6717 
L 499.93632 -209.055612 
L 498.8736 -209.439525 
L 497.81088 -209.823437 
L 496.74816 -210.207349 
L 495.68544 -210.591261 
L 494.62272 -210.975173 
L 493.56 -211.359086 
z
" style="stroke: #b74959; stroke-opacity: 0.16"/>
    </defs>
    <g clip-path="url(#pfc26895383)">
     <use xlink:href="#m6f32452dbb" x="0" y="518.4" style="fill: #b74959; fill-opacity: 0.16; stroke: #b74959; stroke-opacity: 0.16"/>
    </g>
   </g>
   <g id="line2d_1">
    <path d="M 104.76 189.7344 
L 370.44 189.7344 
" clip-path="url(#pfc26895383)" style="fill: none; stroke: #173c50; stroke-width: 6; stroke-linecap: square"/>
   </g>
   <g id="line2d_2">
    <path d="M 84.672 210.529646 
L 124.848 210.529646 
" clip-path="url(#pfc26895383)" style="fill: none; stroke: #173c50; stroke-linecap: square"/>
   </g>
   <g id="line2d_3">
    <path d="M 85.32 211.596069 
L 79.488 216.928183 
" clip-path="url(#pfc26895383)" style="fill: none; stroke: #173c50; stroke-width: 0.7; stroke-linecap: square"/>
   </g>
   <g id="line2d_4">
    <path d="M 93.096 211.596069 
L 87.264 216.928183 
" clip-path="url(#pfc26895383)" style="fill: none; stroke: #173c50; stroke-width: 0.7; stroke-linecap: square"/>
   </g>
   <g id="line2d_5">
    <path d="M 100.872 211.596069 
L 95.04 216.928183 
" clip-path="url(#pfc26895383)" style="fill: none; stroke: #173c50; stroke-width: 0.7; stroke-linecap: square"/>
   </g>
   <g id="line2d_6">
    <path d="M 108.648 211.596069 
L 102.816 216.928183 
" clip-path="url(#pfc26895383)" style="fill: none; stroke: #173c50; stroke-width: 0.7; stroke-linecap: square"/>
   </g>
   <g id="line2d_7">
    <path d="M 116.424 211.596069 
L 110.592 216.928183 
" clip-path="url(#pfc26895383)" style="fill: none; stroke: #173c50; stroke-width: 0.7; stroke-linecap: square"/>
   </g>
   <g id="line2d_8">
    <path d="M 350.352 217.461394 
L 390.528 217.461394 
" clip-path="url(#pfc26895383)" style="fill: none; stroke: #173c50; stroke-linecap: square"/>
   </g>
   <g id="line2d_9">
    <path d="M 351 218.527817 
L 345.168 223.859931 
" clip-path="url(#pfc26895383)" style="fill: none; stroke: #173c50; stroke-width: 0.7; stroke-linecap: square"/>
   </g>
   <g id="line2d_10">
    <path d="M 358.776 218.527817 
L 352.944 223.859931 
" clip-path="url(#pfc26895383)" style="fill: none; stroke: #173c50; stroke-width: 0.7; stroke-linecap: square"/>
   </g>
   <g id="line2d_11">
    <path d="M 366.552 218.527817 
L 360.72 223.859931 
" clip-path="url(#pfc26895383)" style="fill: none; stroke: #173c50; stroke-width: 0.7; stroke-linecap: square"/>
   </g>
   <g id="line2d_12">
    <path d="M 374.328 218.527817 
L 368.496 223.859931 
" clip-path="url(#pfc26895383)" style="fill: none; stroke: #173c50; stroke-width: 0.7; stroke-linecap: square"/>
   </g>
   <g id="line2d_13">
    <path d="M 382.104 218.527817 
L 376.272 223.859931 
" clip-path="url(#pfc26895383)" style="fill: none; stroke: #173c50; stroke-width: 0.7; stroke-linecap: square"/>
   </g>
   <g id="line2d_14">
    <path d="M 211.032 204.131109 
L 211.032 176.404114 
" clip-path="url(#pfc26895383)" style="fill: none; stroke: #b74959; stroke-width: 2; stroke-linecap: square"/>
   </g>
   <g id="line2d_15">
    <path d="M 104.76 307.040914 
L 370.44 307.040914 
" clip-path="url(#pfc26895383)" style="fill: none; stroke: #7b919c; stroke-linecap: square"/>
   </g>
   <g id="line2d_16">
    <path d="M 104.76 307.040914 
L 105.82272 307.424827 
L 106.88544 307.808739 
L 107.94816 308.192651 
L 109.01088 308.576563 
L 110.0736 308.960475 
L 111.13632 309.344388 
L 112.19904 309.7283 
L 113.26176 310.112212 
L 114.32448 310.496124 
L 115.3872 310.880037 
L 116.44992 311.263949 
L 117.51264 311.647861 
L 118.57536 312.031773 
L 119.63808 312.415685 
L 120.7008 312.799598 
L 121.76352 313.18351 
L 122.82624 313.567422 
L 123.88896 313.951334 
L 124.95168 314.335247 
L 126.0144 314.719159 
L 127.07712 315.103071 
L 128.13984 315.486983 
L 129.20256 315.870896 
L 130.26528 316.254808 
L 131.328 316.63872 
L 132.39072 317.022632 
L 133.45344 317.406544 
L 134.51616 317.790457 
L 135.57888 318.174369 
L 136.6416 318.558281 
L 137.70432 318.942193 
L 138.76704 319.326106 
L 139.82976 319.710018 
L 140.89248 320.09393 
L 141.9552 320.477842 
L 143.01792 320.861755 
L 144.08064 321.245667 
L 145.14336 321.629579 
L 146.20608 322.013491 
L 147.2688 322.397403 
L 148.33152 322.781316 
L 149.39424 323.165228 
L 150.45696 323.54914 
L 151.51968 323.933052 
L 152.5824 324.316965 
L 153.64512 324.700877 
L 154.70784 325.084789 
L 155.77056 325.468701 
L 156.83328 325.852613 
L 157.896 326.236526 
L 158.95872 326.620438 
L 160.02144 327.00435 
L 161.08416 327.388262 
L 162.14688 327.772175 
L 163.2096 328.156087 
L 164.27232 328.539999 
L 165.33504 328.923911 
L 166.39776 329.307824 
L 167.46048 329.691736 
L 168.5232 330.075648 
L 169.58592 330.45956 
L 170.64864 330.843472 
L 171.71136 331.227385 
L 172.77408 331.611297 
L 173.8368 331.995209 
L 174.89952 332.379121 
L 175.96224 332.763034 
L 177.02496 333.146946 
L 178.08768 333.530858 
L 179.1504 333.91477 
L 180.21312 334.298683 
L 181.27584 334.682595 
L 182.33856 335.066507 
L 183.40128 335.450419 
L 184.464 335.834331 
L 185.52672 336.218244 
L 186.58944 336.602156 
L 187.65216 336.986068 
L 188.71488 337.36998 
L 189.7776 337.753893 
L 190.84032 338.137805 
L 191.90304 338.521717 
L 192.96576 338.905629 
L 194.02848 339.289541 
L 195.0912 339.673454 
L 196.15392 340.057366 
L 197.21664 340.441278 
L 198.27936 340.82519 
L 199.34208 341.209103 
L 200.4048 341.593015 
L 201.46752 341.976927 
L 202.53024 342.360839 
L 203.59296 342.744752 
L 204.65568 343.128664 
L 205.7184 343.512576 
L 206.78112 343.896488 
L 207.84384 344.2804 
L 208.90656 344.664313 
L 209.96928 345.048225 
L 211.032 345.432137 
" clip-path="url(#pfc26895383)" style="fill: none; stroke: #b74959; stroke-width: 2.5; stroke-linecap: square"/>
   </g>
   <g id="line2d_17">
    <path d="M 211.032 249.45408 
L 212.62608 250.029948 
L 214.22016 250.605817 
L 215.81424 251.181685 
L 217.40832 251.757553 
L 219.0024 252.333422 
L 220.59648 252.90929 
L 222.19056 253.485158 
L 223.78464 254.061027 
L 225.37872 254.636895 
L 226.9728 255.212763 
L 228.56688 255.788632 
L 230.16096 256.3645 
L 231.75504 256.940368 
L 233.34912 257.516237 
L 234.9432 258.092105 
L 236.53728 258.667973 
L 238.13136 259.243842 
L 239.72544 259.81971 
L 241.31952 260.395579 
L 242.9136 260.971447 
L 244.50768 261.547315 
L 246.10176 262.123184 
L 247.69584 262.699052 
L 249.28992 263.27492 
L 250.884 263.850789 
L 252.47808 264.426657 
L 254.07216 265.002525 
L 255.66624 265.578394 
L 257.26032 266.154262 
L 258.8544 266.73013 
L 260.44848 267.305999 
L 262.04256 267.881867 
L 263.63664 268.457735 
L 265.23072 269.033604 
L 266.8248 269.609472 
L 268.41888 270.18534 
L 270.01296 270.761209 
L 271.60704 271.337077 
L 273.20112 271.912945 
L 274.7952 272.488814 
L 276.38928 273.064682 
L 277.98336 273.64055 
L 279.57744 274.216419 
L 281.17152 274.792287 
L 282.7656 275.368155 
L 284.35968 275.944024 
L 285.95376 276.519892 
L 287.54784 277.09576 
L 289.14192 277.671629 
L 290.736 278.247497 
L 292.33008 278.823365 
L 293.92416 279.399234 
L 295.51824 279.975102 
L 297.11232 280.550971 
L 298.7064 281.126839 
L 300.30048 281.702707 
L 301.89456 282.278576 
L 303.48864 282.854444 
L 305.08272 283.430312 
L 306.6768 284.006181 
L 308.27088 284.582049 
L 309.86496 285.157917 
L 311.45904 285.733786 
L 313.05312 286.309654 
L 314.6472 286.885522 
L 316.24128 287.461391 
L 317.83536 288.037259 
L 319.42944 288.613127 
L 321.02352 289.188996 
L 322.6176 289.764864 
L 324.21168 290.340732 
L 325.80576 290.916601 
L 327.39984 291.492469 
L 328.99392 292.068337 
L 330.588 292.644206 
L 332.18208 293.220074 
L 333.77616 293.795942 
L 335.37024 294.371811 
L 336.96432 294.947679 
L 338.5584 295.523547 
L 340.15248 296.099416 
L 341.74656 296.675284 
L 343.34064 297.251152 
L 344.93472 297.827021 
L 346.5288 298.402889 
L 348.12288 298.978757 
L 349.71696 299.554626 
L 351.31104 300.130494 
L 352.90512 300.706363 
L 354.4992 301.282231 
L 356.09328 301.858099 
L 357.68736 302.433968 
L 359.28144 303.009836 
L 360.87552 303.585704 
L 362.4696 304.161573 
L 364.06368 304.737441 
L 365.65776 305.313309 
L 367.25184 305.889178 
L 368.84592 306.465046 
L 370.44 307.040914 
" clip-path="url(#pfc26895383)" style="fill: none; stroke: #00898b; stroke-width: 2.5; stroke-linecap: square"/>
   </g>
   <g id="line2d_18">
    <path d="M 211.032 345.432137 
L 211.032 249.45408 
" clip-path="url(#pfc26895383)" style="fill: none; stroke-dasharray: 1,1.65; stroke-dashoffset: 0; stroke: #7b919c"/>
   </g>
   <g id="line2d_19">
    <defs>
     <path id="m7de322a25e" d="M 0 3 
C 0.795609 3 1.55874 2.683901 2.12132 2.12132 
C 2.683901 1.55874 3 0.795609 3 0 
C 3 -0.795609 2.683901 -1.55874 2.12132 -2.12132 
C 1.55874 -2.683901 0.795609 -3 0 -3 
C -0.795609 -3 -1.55874 -2.683901 -2.12132 -2.12132 
C -2.683901 -1.55874 -3 -0.795609 -3 0 
C -3 0.795609 -2.683901 1.55874 -2.12132 2.12132 
C -1.55874 2.683901 -0.795609 3 0 3 
z
" style="stroke: #b74959"/>
    </defs>
    <g clip-path="url(#pfc26895383)">
     <use xlink:href="#m7de322a25e" x="211.032" y="345.432137" style="fill: #ffffff; stroke: #b74959"/>
    </g>
   </g>
   <g id="line2d_20">
    <defs>
     <path id="mf38de25f82" d="M 0 3 
C 0.795609 3 1.55874 2.683901 2.12132 2.12132 
C 2.683901 1.55874 3 0.795609 3 0 
C 3 -0.795609 2.683901 -1.55874 2.12132 -2.12132 
C 1.55874 -2.683901 0.795609 -3 0 -3 
C -0.795609 -3 -1.55874 -2.683901 -2.12132 -2.12132 
C -2.683901 -1.55874 -3 -0.795609 -3 0 
C -3 0.795609 -2.683901 1.55874 -2.12132 2.12132 
C -1.55874 2.683901 -0.795609 3 0 3 
z
" style="stroke: #00898b"/>
    </defs>
    <g clip-path="url(#pfc26895383)">
     <use xlink:href="#mf38de25f82" x="211.032" y="249.45408" style="fill: #ffffff; stroke: #00898b"/>
    </g>
   </g>
   <g id="line2d_21">
    <path d="M 493.56 189.7344 
L 759.24 189.7344 
" clip-path="url(#pfc26895383)" style="fill: none; stroke: #173c50; stroke-width: 6; stroke-linecap: square"/>
   </g>
   <g id="line2d_22">
    <path d="M 473.472 210.529646 
L 513.648 210.529646 
" clip-path="url(#pfc26895383)" style="fill: none; stroke: #173c50; stroke-linecap: square"/>
   </g>
   <g id="line2d_23">
    <path d="M 474.12 211.596069 
L 468.288 216.928183 
" clip-path="url(#pfc26895383)" style="fill: none; stroke: #173c50; stroke-width: 0.7; stroke-linecap: square"/>
   </g>
   <g id="line2d_24">
    <path d="M 481.896 211.596069 
L 476.064 216.928183 
" clip-path="url(#pfc26895383)" style="fill: none; stroke: #173c50; stroke-width: 0.7; stroke-linecap: square"/>
   </g>
   <g id="line2d_25">
    <path d="M 489.672 211.596069 
L 483.84 216.928183 
" clip-path="url(#pfc26895383)" style="fill: none; stroke: #173c50; stroke-width: 0.7; stroke-linecap: square"/>
   </g>
   <g id="line2d_26">
    <path d="M 497.448 211.596069 
L 491.616 216.928183 
" clip-path="url(#pfc26895383)" style="fill: none; stroke: #173c50; stroke-width: 0.7; stroke-linecap: square"/>
   </g>
   <g id="line2d_27">
    <path d="M 505.224 211.596069 
L 499.392 216.928183 
" clip-path="url(#pfc26895383)" style="fill: none; stroke: #173c50; stroke-width: 0.7; stroke-linecap: square"/>
   </g>
   <g id="line2d_28">
    <path d="M 739.152 217.461394 
L 779.328 217.461394 
" clip-path="url(#pfc26895383)" style="fill: none; stroke: #173c50; stroke-linecap: square"/>
   </g>
   <g id="line2d_29">
    <path d="M 739.8 218.527817 
L 733.968 223.859931 
" clip-path="url(#pfc26895383)" style="fill: none; stroke: #173c50; stroke-width: 0.7; stroke-linecap: square"/>
   </g>
   <g id="line2d_30">
    <path d="M 747.576 218.527817 
L 741.744 223.859931 
" clip-path="url(#pfc26895383)" style="fill: none; stroke: #173c50; stroke-width: 0.7; stroke-linecap: square"/>
   </g>
   <g id="line2d_31">
    <path d="M 755.352 218.527817 
L 749.52 223.859931 
" clip-path="url(#pfc26895383)" style="fill: none; stroke: #173c50; stroke-width: 0.7; stroke-linecap: square"/>
   </g>
   <g id="line2d_32">
    <path d="M 763.128 218.527817 
L 757.296 223.859931 
" clip-path="url(#pfc26895383)" style="fill: none; stroke: #173c50; stroke-width: 0.7; stroke-linecap: square"/>
   </g>
   <g id="line2d_33">
    <path d="M 770.904 218.527817 
L 765.072 223.859931 
" clip-path="url(#pfc26895383)" style="fill: none; stroke: #173c50; stroke-width: 0.7; stroke-linecap: square"/>
   </g>
   <g id="line2d_34">
    <path d="M 599.832 204.131109 
L 599.832 176.404114 
" clip-path="url(#pfc26895383)" style="fill: none; stroke: #b74959; stroke-width: 2; stroke-linecap: square"/>
   </g>
   <g id="line2d_35">
    <path d="M 493.56 307.040914 
L 759.24 307.040914 
" clip-path="url(#pfc26895383)" style="fill: none; stroke: #7b919c; stroke-linecap: square"/>
   </g>
   <g id="line2d_36">
    <path d="M 493.56 307.040914 
L 494.62272 307.424827 
L 495.68544 307.808739 
L 496.74816 308.192651 
L 497.81088 308.576563 
L 498.8736 308.960475 
L 499.93632 309.344388 
L 500.99904 309.7283 
L 502.06176 310.112212 
L 503.12448 310.496124 
L 504.1872 310.880037 
L 505.24992 311.263949 
L 506.31264 311.647861 
L 507.37536 312.031773 
L 508.43808 312.415685 
L 509.5008 312.799598 
L 510.56352 313.18351 
L 511.62624 313.567422 
L 512.68896 313.951334 
L 513.75168 314.335247 
L 514.8144 314.719159 
L 515.87712 315.103071 
L 516.93984 315.486983 
L 518.00256 315.870896 
L 519.06528 316.254808 
L 520.128 316.63872 
L 521.19072 317.022632 
L 522.25344 317.406544 
L 523.31616 317.790457 
L 524.37888 318.174369 
L 525.4416 318.558281 
L 526.50432 318.942193 
L 527.56704 319.326106 
L 528.62976 319.710018 
L 529.69248 320.09393 
L 530.7552 320.477842 
L 531.81792 320.861755 
L 532.88064 321.245667 
L 533.94336 321.629579 
L 535.00608 322.013491 
L 536.0688 322.397403 
L 537.13152 322.781316 
L 538.19424 323.165228 
L 539.25696 323.54914 
L 540.31968 323.933052 
L 541.3824 324.316965 
L 542.44512 324.700877 
L 543.50784 325.084789 
L 544.57056 325.468701 
L 545.63328 325.852613 
L 546.696 326.236526 
L 547.75872 326.620438 
L 548.82144 327.00435 
L 549.88416 327.388262 
L 550.94688 327.772175 
L 552.0096 328.156087 
L 553.07232 328.539999 
L 554.13504 328.923911 
L 555.19776 329.307824 
L 556.26048 329.691736 
L 557.3232 330.075648 
L 558.38592 330.45956 
L 559.44864 330.843472 
L 560.51136 331.227385 
L 561.57408 331.611297 
L 562.6368 331.995209 
L 563.69952 332.379121 
L 564.76224 332.763034 
L 565.82496 333.146946 
L 566.88768 333.530858 
L 567.9504 333.91477 
L 569.01312 334.298683 
L 570.07584 334.682595 
L 571.13856 335.066507 
L 572.20128 335.450419 
L 573.264 335.834331 
L 574.32672 336.218244 
L 575.38944 336.602156 
L 576.45216 336.986068 
L 577.51488 337.36998 
L 578.5776 337.753893 
L 579.64032 338.137805 
L 580.70304 338.521717 
L 581.76576 338.905629 
L 582.82848 339.289541 
L 583.8912 339.673454 
L 584.95392 340.057366 
L 586.01664 340.441278 
L 587.07936 340.82519 
L 588.14208 341.209103 
L 589.2048 341.593015 
L 590.26752 341.976927 
L 591.33024 342.360839 
L 592.39296 342.744752 
L 593.45568 343.128664 
L 594.5184 343.512576 
L 595.58112 343.896488 
L 596.64384 344.2804 
L 597.70656 344.664313 
L 598.76928 345.048225 
L 599.832 345.432137 
" clip-path="url(#pfc26895383)" style="fill: none; stroke: #b74959; stroke-width: 2.5; stroke-linecap: square"/>
   </g>
   <g id="line2d_37">
    <path d="M 599.832 249.45408 
L 601.42608 250.029948 
L 603.02016 250.605817 
L 604.61424 251.181685 
L 606.20832 251.757553 
L 607.8024 252.333422 
L 609.39648 252.90929 
L 610.99056 253.485158 
L 612.58464 254.061027 
L 614.17872 254.636895 
L 615.7728 255.212763 
L 617.36688 255.788632 
L 618.96096 256.3645 
L 620.55504 256.940368 
L 622.14912 257.516237 
L 623.7432 258.092105 
L 625.33728 258.667973 
L 626.93136 259.243842 
L 628.52544 259.81971 
L 630.11952 260.395579 
L 631.7136 260.971447 
L 633.30768 261.547315 
L 634.90176 262.123184 
L 636.49584 262.699052 
L 638.08992 263.27492 
L 639.684 263.850789 
L 641.27808 264.426657 
L 642.87216 265.002525 
L 644.46624 265.578394 
L 646.06032 266.154262 
L 647.6544 266.73013 
L 649.24848 267.305999 
L 650.84256 267.881867 
L 652.43664 268.457735 
L 654.03072 269.033604 
L 655.6248 269.609472 
L 657.21888 270.18534 
L 658.81296 270.761209 
L 660.40704 271.337077 
L 662.00112 271.912945 
L 663.5952 272.488814 
L 665.18928 273.064682 
L 666.78336 273.64055 
L 668.37744 274.216419 
L 669.97152 274.792287 
L 671.5656 275.368155 
L 673.15968 275.944024 
L 674.75376 276.519892 
L 676.34784 277.09576 
L 677.94192 277.671629 
L 679.536 278.247497 
L 681.13008 278.823365 
L 682.72416 279.399234 
L 684.31824 279.975102 
L 685.91232 280.550971 
L 687.5064 281.126839 
L 689.10048 281.702707 
L 690.69456 282.278576 
L 692.28864 282.854444 
L 693.88272 283.430312 
L 695.4768 284.006181 
L 697.07088 284.582049 
L 698.66496 285.157917 
L 700.25904 285.733786 
L 701.85312 286.309654 
L 703.4472 286.885522 
L 705.04128 287.461391 
L 706.63536 288.037259 
L 708.22944 288.613127 
L 709.82352 289.188996 
L 711.4176 289.764864 
L 713.01168 290.340732 
L 714.60576 290.916601 
L 716.19984 291.492469 
L 717.79392 292.068337 
L 719.388 292.644206 
L 720.98208 293.220074 
L 722.57616 293.795942 
L 724.17024 294.371811 
L 725.76432 294.947679 
L 727.3584 295.523547 
L 728.95248 296.099416 
L 730.54656 296.675284 
L 732.14064 297.251152 
L 733.73472 297.827021 
L 735.3288 298.402889 
L 736.92288 298.978757 
L 738.51696 299.554626 
L 740.11104 300.130494 
L 741.70512 300.706363 
L 743.2992 301.282231 
L 744.89328 301.858099 
L 746.48736 302.433968 
L 748.08144 303.009836 
L 749.67552 303.585704 
L 751.2696 304.161573 
L 752.86368 304.737441 
L 754.45776 305.313309 
L 756.05184 305.889178 
L 757.64592 306.465046 
L 759.24 307.040914 
" clip-path="url(#pfc26895383)" style="fill: none; stroke: #00898b; stroke-width: 2.5; stroke-linecap: square"/>
   </g>
   <g id="line2d_38">
    <path d="M 599.832 345.432137 
L 599.832 249.45408 
" clip-path="url(#pfc26895383)" style="fill: none; stroke-dasharray: 1,1.65; stroke-dashoffset: 0; stroke: #7b919c"/>
   </g>
   <g id="line2d_39">
    <g clip-path="url(#pfc26895383)">
     <use xlink:href="#m7de322a25e" x="599.832" y="345.432137" style="fill: #ffffff; stroke: #b74959"/>
    </g>
   </g>
   <g id="line2d_40">
    <g clip-path="url(#pfc26895383)">
     <use xlink:href="#mf38de25f82" x="599.832" y="249.45408" style="fill: #ffffff; stroke: #00898b"/>
    </g>
   </g>
   <g id="text_1">
    <text style="font-size: 17px; font-family: 'DejaVu Sans', 'Bitstream Vera Sans', 'Computer Modern Sans Serif', 'Lucida Grande', 'Verdana', 'Geneva', 'Lucid', 'Arial', 'Helvetica', 'Avant Garde', sans-serif; text-anchor: middle; fill: #173c50" x="237.6" y="103.770098" transform="rotate(-0 237.6 103.770098)">求最大正剪力</text>
   </g>
   <g id="text_2">
    <text style="font-size: 12px; font-family: 'DejaVu Sans', 'Bitstream Vera Sans', 'Computer Modern Sans Serif', 'Lucida Grande', 'Verdana', 'Geneva', 'Lucid', 'Arial', 'Helvetica', 'Avant Garde', sans-serif; text-anchor: middle; fill: #b74959" x="211.032" y="169.044573" transform="rotate(-0 211.032 169.044573)">C</text>
   </g>
   <g id="text_3">
    <text style="font-size: 12px; font-family: 'DejaVu Sans', 'Bitstream Vera Sans', 'Computer Modern Sans Serif', 'Lucida Grande', 'Verdana', 'Geneva', 'Lucid', 'Arial', 'Helvetica', 'Avant Garde', sans-serif; text-anchor: middle; fill: #00898b" x="237.6" y="121.055545" transform="rotate(-0 237.6 121.055545)">只覆盖正区</text>
   </g>
   <g id="text_4">
    <text style="font-size: 11px; font-family: 'DejaVu Sans', 'Bitstream Vera Sans', 'Computer Modern Sans Serif', 'Lucida Grande', 'Verdana', 'Geneva', 'Lucid', 'Arial', 'Helvetica', 'Avant Garde', sans-serif; text-anchor: middle; fill: #7b919c" x="149.472" y="244.110119" transform="rotate(-0 149.472 244.110119)">ηV（无量纲）</text>
   </g>
   <g id="text_5">
    <text style="font-size: 11px; font-family: 'DejaVu Sans', 'Bitstream Vera Sans', 'Computer Modern Sans Serif', 'Lucida Grande', 'Verdana', 'Geneva', 'Lucid', 'Arial', 'Helvetica', 'Avant Garde', sans-serif; text-anchor: middle; fill: #b74959" x="186.408" y="361.79172" transform="rotate(-0 186.408 361.79172)">−0.4</text>
   </g>
   <g id="text_6">
    <text style="font-size: 11px; font-family: 'DejaVu Sans', 'Bitstream Vera Sans', 'Computer Modern Sans Serif', 'Lucida Grande', 'Verdana', 'Geneva', 'Lucid', 'Arial', 'Helvetica', 'Avant Garde', sans-serif; text-anchor: middle; fill: #00898b" x="235.656" y="241.819148" transform="rotate(-0 235.656 241.819148)">+0.6</text>
   </g>
   <g id="text_7">
    <text style="font-size: 11px; font-family: 'DejaVu Sans', 'Bitstream Vera Sans', 'Computer Modern Sans Serif', 'Lucida Grande', 'Verdana', 'Geneva', 'Lucid', 'Arial', 'Helvetica', 'Avant Garde', sans-serif; text-anchor: middle; fill: #7b919c" x="104.76" y="321.800863" transform="rotate(-0 104.76 321.800863)">0</text>
   </g>
   <g id="text_8">
    <text style="font-size: 11px; font-family: 'DejaVu Sans', 'Bitstream Vera Sans', 'Computer Modern Sans Serif', 'Lucida Grande', 'Verdana', 'Geneva', 'Lucid', 'Arial', 'Helvetica', 'Avant Garde', sans-serif; text-anchor: middle; fill: #7b919c" x="370.44" y="321.800863" transform="rotate(-0 370.44 321.800863)">30 m</text>
   </g>
   <g id="text_9">
    <text style="font-size: 22px; font-family: 'DejaVu Sans', 'Bitstream Vera Sans', 'Computer Modern Sans Serif', 'Lucida Grande', 'Verdana', 'Geneva', 'Lucid', 'Arial', 'Helvetica', 'Avant Garde', sans-serif; text-anchor: middle; fill: #00898b" x="237.6" y="395.747279" transform="rotate(-0 237.6 395.747279)">VC = +54 kN</text>
   </g>
   <g id="text_10">
    <text style="font-size: 11.5px; font-family: 'DejaVu Sans', 'Bitstream Vera Sans', 'Computer Modern Sans Serif', 'Lucida Grande', 'Verdana', 'Geneva', 'Lucid', 'Arial', 'Helvetica', 'Avant Garde', sans-serif; text-anchor: middle; fill: #173c50" x="237.6" y="426.666318" transform="rotate(-0 237.6 426.666318)">影响线有号面积 × q = 5.4 m × 10 kN/m</text>
   </g>
   <g id="text_11">
    <text style="font-size: 17px; font-family: 'DejaVu Sans', 'Bitstream Vera Sans', 'Computer Modern Sans Serif', 'Lucida Grande', 'Verdana', 'Geneva', 'Lucid', 'Arial', 'Helvetica', 'Avant Garde', sans-serif; text-anchor: middle; fill: #173c50" x="626.4" y="103.770098" transform="rotate(-0 626.4 103.770098)">求最小负剪力</text>
   </g>
   <g id="text_12">
    <text style="font-size: 12px; font-family: 'DejaVu Sans', 'Bitstream Vera Sans', 'Computer Modern Sans Serif', 'Lucida Grande', 'Verdana', 'Geneva', 'Lucid', 'Arial', 'Helvetica', 'Avant Garde', sans-serif; text-anchor: middle; fill: #b74959" x="599.832" y="169.044573" transform="rotate(-0 599.832 169.044573)">C</text>
   </g>
   <g id="text_13">
    <text style="font-size: 12px; font-family: 'DejaVu Sans', 'Bitstream Vera Sans', 'Computer Modern Sans Serif', 'Lucida Grande', 'Verdana', 'Geneva', 'Lucid', 'Arial', 'Helvetica', 'Avant Garde', sans-serif; text-anchor: middle; fill: #b74959" x="626.4" y="121.055545" transform="rotate(-0 626.4 121.055545)">只覆盖负区</text>
   </g>
   <g id="text_14">
    <text style="font-size: 11px; font-family: 'DejaVu Sans', 'Bitstream Vera Sans', 'Computer Modern Sans Serif', 'Lucida Grande', 'Verdana', 'Geneva', 'Lucid', 'Arial', 'Helvetica', 'Avant Garde', sans-serif; text-anchor: middle; fill: #7b919c" x="538.272" y="244.110119" transform="rotate(-0 538.272 244.110119)">ηV（无量纲）</text>
   </g>
   <g id="text_15">
    <text style="font-size: 11px; font-family: 'DejaVu Sans', 'Bitstream Vera Sans', 'Computer Modern Sans Serif', 'Lucida Grande', 'Verdana', 'Geneva', 'Lucid', 'Arial', 'Helvetica', 'Avant Garde', sans-serif; text-anchor: middle; fill: #b74959" x="575.208" y="361.79172" transform="rotate(-0 575.208 361.79172)">−0.4</text>
   </g>
   <g id="text_16">
    <text style="font-size: 11px; font-family: 'DejaVu Sans', 'Bitstream Vera Sans', 'Computer Modern Sans Serif', 'Lucida Grande', 'Verdana', 'Geneva', 'Lucid', 'Arial', 'Helvetica', 'Avant Garde', sans-serif; text-anchor: middle; fill: #00898b" x="624.456" y="241.819148" transform="rotate(-0 624.456 241.819148)">+0.6</text>
   </g>
   <g id="text_17">
    <text style="font-size: 11px; font-family: 'DejaVu Sans', 'Bitstream Vera Sans', 'Computer Modern Sans Serif', 'Lucida Grande', 'Verdana', 'Geneva', 'Lucid', 'Arial', 'Helvetica', 'Avant Garde', sans-serif; text-anchor: middle; fill: #7b919c" x="493.56" y="321.800863" transform="rotate(-0 493.56 321.800863)">0</text>
   </g>
   <g id="text_18">
    <text style="font-size: 11px; font-family: 'DejaVu Sans', 'Bitstream Vera Sans', 'Computer Modern Sans Serif', 'Lucida Grande', 'Verdana', 'Geneva', 'Lucid', 'Arial', 'Helvetica', 'Avant Garde', sans-serif; text-anchor: middle; fill: #7b919c" x="759.24" y="321.800863" transform="rotate(-0 759.24 321.800863)">30 m</text>
   </g>
   <g id="text_19">
    <text style="font-size: 22px; font-family: 'DejaVu Sans', 'Bitstream Vera Sans', 'Computer Modern Sans Serif', 'Lucida Grande', 'Verdana', 'Geneva', 'Lucid', 'Arial', 'Helvetica', 'Avant Garde', sans-serif; text-anchor: middle; fill: #b74959" x="626.4" y="395.747279" transform="rotate(-0 626.4 395.747279)">VC = -24 kN</text>
   </g>
   <g id="text_20">
    <text style="font-size: 11.5px; font-family: 'DejaVu Sans', 'Bitstream Vera Sans', 'Computer Modern Sans Serif', 'Lucida Grande', 'Verdana', 'Geneva', 'Lucid', 'Arial', 'Helvetica', 'Avant Garde', sans-serif; text-anchor: middle; fill: #173c50" x="626.4" y="426.666318" transform="rotate(-0 626.4 426.666318)">影响线有号面积 × q = -2.4 m × 10 kN/m</text>
   </g>
  </g>
  <g id="text_21">
   <text style="font-weight: 700; font-size: 23px; font-family: 'DejaVu Sans', 'Bitstream Vera Sans', 'Computer Modern Sans Serif', 'Lucida Grande', 'Verdana', 'Geneva', 'Lucid', 'Arial', 'Helvetica', 'Avant Garde', sans-serif; text-anchor: start; fill: #173c50" x="47.52" y="46.897625" transform="rotate(-0 47.52 46.897625)">想让同一截面的剪力最大，荷载该放在哪一边？</text>
  </g>
  <g id="text_22">
   <text style="font-size: 10.5px; font-family: 'DejaVu Sans', 'Bitstream Vera Sans', 'Computer Modern Sans Serif', 'Lucida Grande', 'Verdana', 'Geneva', 'Lucid', 'Arial', 'Helvetica', 'Avant Garde', sans-serif; fill: #7b919c" transform="translate(47.52 476.422031)">教学例：L = 30 m，截面 C 距左支点 a = 12 m；可自由布置的向下均布荷载 q = 10 kN/m。</text>
   <text style="font-size: 10.5px; font-family: 'DejaVu Sans', 'Bitstream Vera Sans', 'Computer Modern Sans Serif', 'Lucida Grande', 'Verdana', 'Geneva', 'Lucid', 'Arial', 'Helvetica', 'Avant Garde', sans-serif; fill: #7b919c" transform="translate(47.52 492.461766)">符号定义：VC = RA − C左侧荷载总和；对左段自由体，正 VC 在切口处向下。只讨论这个定义下的正、负极值。</text>
  </g>
 </g>
 <defs>
  <clipPath id="pfc26895383">
   <rect x="43.2" y="77.76" width="777.6" height="373.248"/>
  </clipPath>
 </defs>
</svg>
