<svg id="fig" class="figure" viewBox="0 0 960 430" role="img" aria-labelledby="svg-title svg-desc" xmlns="http://www.w3.org/2000/svg"><style>.axis{stroke:#81959f;stroke-width:1}.grid{stroke:#e3eaee;stroke-width:1}.structure{stroke:#183342;stroke-width:5;fill:none}.force{stroke:#c7632d;stroke-width:3;fill:none}.reaction{stroke:#146c94;stroke-width:3;fill:none}.dim{stroke:#7e919a;stroke-width:1.2;fill:none}.label{fill:#183342;font:15px sans-serif}.small{fill:#607783;font:13px sans-serif}.curve{stroke:#146c94;stroke-width:3;fill:none}.curve2{stroke:#c7632d;stroke-width:3;fill:none}.curve3{stroke:#2d7b68;stroke-width:3;fill:none}.point{fill:#c7632d;stroke:#fff;stroke-width:2}.solid{fill:#d9e7ed;stroke:#183342;stroke-width:2}.void{fill:#fff;stroke:#183342;stroke-width:2}.support{fill:#eaf2f5;stroke:#183342;stroke-width:2}</style>
      <title id="svg-title">离散数量与位移收敛</title><desc id="svg-desc">用复合梯形积分离散单位荷载法积分，观察悬臂梁端位移趋近解析值。</desc>
      <defs>
        <marker id="arrow" viewBox="0 0 10 10" refX="8" refY="5" markerWidth="7" markerHeight="7" orient="auto-start-reverse"><path d="M0 0L10 5L0 10Z" fill="#c84a3f"/></marker>
        <marker id="arrowBlue" viewBox="0 0 10 10" refX="8" refY="5" markerWidth="7" markerHeight="7" orient="auto-start-reverse"><path d="M0 0L10 5L0 10Z" fill="#126f8c"/></marker>
      </defs>
      <g id="drawing"><line x1="120" y1="350" x2="840" y2="350" class="axis"/><line x1="120" y1="70" x2="120" y2="350" class="axis"/><line x1="264" y1="70" x2="264" y2="350" class="grid"/><line x1="120" y1="126" x2="840" y2="126" class="grid"/><line x1="408" y1="70" x2="408" y2="350" class="grid"/><line x1="120" y1="182" x2="840" y2="182" class="grid"/><line x1="552" y1="70" x2="552" y2="350" class="grid"/><line x1="120" y1="238" x2="840" y2="238" class="grid"/><line x1="696" y1="70" x2="696" y2="350" class="grid"/><line x1="120" y1="294" x2="840" y2="294" class="grid"/><text x="840" y="374" class="muted" text-anchor="end">x / L</text><text x="112" y="73" class="muted" text-anchor="end">(L-x)²</text><polyline points="120,70 127.2,75.572 134.4,81.08800000000002 141.6,86.548 148.8,91.952 156,97.30000000000001 163.2,102.59200000000001 170.4,107.82800000000003 177.6,113.00799999999998 184.8,118.13199999999998 192,123.19999999999999 199.2,128.212 206.39999999999998,133.168 213.60000000000002,138.06799999999998 220.8,142.91200000000003 228,147.70000000000002 235.2,152.43200000000002 242.4,157.108 249.6,161.72799999999998 256.8,166.29199999999997 264,170.79999999999995 271.2,175.25199999999998 278.4,179.648 285.6,183.988 292.79999999999995,188.272 300,192.5 307.20000000000005,196.672 314.4,200.788 321.6,204.848 328.79999999999995,208.852 336,212.8 343.2,216.69200000000004 350.4,220.52800000000002 357.6,224.30800000000002 364.8,228.03200000000004 372,231.7 379.2,235.312 386.4,238.868 393.6,242.368 400.8,245.812 408,249.2 415.2,252.53199999999998 422.4,255.808 429.6,259.02799999999996 436.8,262.192 444,265.29999999999995 451.2,268.352 458.4,271.34799999999996 465.59999999999997,274.288 472.8,277.172 480,280 487.2,282.772 494.40000000000003,285.488 501.6,288.148 508.8,290.752 516,293.3 523.2,295.79200000000003 530.4,298.228 537.5999999999999,300.608 544.8,302.932 552,305.2 559.2,307.412 566.4,309.568 573.6,311.668 580.8,313.712 588,315.7 595.2,317.632 602.4000000000001,319.50800000000004 609.6,321.32800000000003 616.8,323.092 624,324.8 631.2,326.452 638.4,328.048 645.6,329.588 652.8,331.072 660,332.5 667.2,333.872 674.4,335.188 681.6,336.448 688.8000000000001,337.652 696,338.8 703.2,339.892 710.4,340.928 717.6,341.908 724.8,342.832 732,343.7 739.2,344.512 746.4,345.268 753.6,345.968 760.8,346.612 768,347.2 775.2,347.732 782.4,348.208 789.6,348.628 796.8,348.992 804,349.3 811.1999999999999,349.552 818.4,349.748 825.6,349.888 832.8,349.972 840,350" fill="none" stroke="#126f8c" stroke-width="4"/><line x1="120" y1="350" x2="120" y2="70" class="grid"/><line x1="240" y1="350" x2="240" y2="155.55555555555554" class="grid"/><line x1="360" y1="350" x2="360" y2="225.55555555555554" class="grid"/><line x1="480" y1="350" x2="480" y2="280" class="grid"/><line x1="600" y1="350" x2="600" y2="318.88888888888886" class="grid"/><line x1="720" y1="350" x2="720" y2="342.22222222222223" class="grid"/><line x1="840" y1="350" x2="840" y2="350" class="grid"/><text x="480" y="405" class="data" text-anchor="middle">区段增加时，数值积分趋近解析面积</text></g>
    </svg>